
            <svg xmlns="http://www.w3.org/2000/svg" xmlns:cc="http://creativecommons.org/ns#" xmlns:rdf="http://www.w3.org/1999/02/22-rdf-syntax-ns#" version="1.1" width="586.15625" height="99.14070129394531">
              <defs>
                <style type="text/css">svg {
            background-color: #fff; }
          
          .root text,
          .root tspan {
            font: 12px Arial; }
          
          .root path {
            fill-opacity: 0;
            stroke-width: 2px;
            stroke: #000; }
          
          .root circle {
            fill: #6b6659;
            stroke-width: 2px;
            stroke: #000; }
          
          .anchor text, .any-character text {
            fill: #fff; }
          
          .anchor rect, .any-character rect {
            fill: #6b6659; }
          
          .escape text, .charset-escape text, .literal text {
            fill: #000; }
          
          .escape rect, .charset-escape rect {
            fill: #bada55; }
          
          .literal rect {
            fill: #dae9e5; }
          
          .charset .charset-box {
            fill: #cbcbba; }
          
          .subexp .subexp-label tspan,
          .charset .charset-label tspan,
          .match-fragment .repeat-label tspan {
            font-size: 10px; }
          
          .repeat-label {
            cursor: help; }
          
          .subexp .subexp-label tspan,
          .charset .charset-label tspan {
            dominant-baseline: text-after-edge; }
          
          .subexp .subexp-box {
            stroke: #908c83;
            stroke-dasharray: 6,2;
            stroke-width: 2px;
            fill-opacity: 0; }
          
          .quote {
            fill: #908c83; }
          </style>
              </defs>
              <metadata>
                <rdf:rdf>
                  <cc:license rdf:about="http://creativecommons.org/licenses/by/3.0/">
                    <cc:permits rdf:resource="http://creativecommons.org/ns#Reproduction"></cc:permits>
                    <cc:permits rdf:resource="http://creativecommons.org/ns#Distribution"></cc:permits>
                    <cc:requires rdf:resource="http://creativecommons.org/ns#Notice"></cc:requires>
                    <cc:requires rdf:resource="http://creativecommons.org/ns#Attribution"></cc:requires>
                    <cc:permits rdf:resource="http://creativecommons.org/ns#DerivativeWorks"></cc:permits>
                  </cc:license>
                </rdf:rdf>
              </metadata>
            <desc>Created with Snap</desc><g transform="matrix(1,0,0,1,15,21)" class="root"><text x="0" y="0">Flags: Global</text><g transform="matrix(1,0,0,1,10,13.5313)" class="regexp match"><path d="M49.34375,32.8594H69.3438M90.671925,32.8594H110.6719M137.343775,32.8594H157.3438M178.671925,32.8594H188.6719M341.750025,32.859425H351.75M373.078125,32.8594H383.0781"></path><g transform="matrix(1,0,0,1,0,0)" class="match-fragment subexp"><rect rx="3" ry="3" class="subexp-box" transform="matrix(1,0,0,1,0,11.1094)" width="59.34375" height="43.5"></rect><text x="0" y="0" transform="matrix(1,0,0,1,0,11.1094)" class="subexp-label"><tspan>group #1</tspan></text><g transform="matrix(1,0,0,1,10,21.1094)" class="regexp match match-fragment literal"><g class="label"><rect width="39.34375" height="23.5" rx="3" ry="3"></rect><text x="0" y="0" transform="matrix(1,0,0,1,5,16.75)"><tspan class="quote">“</tspan><tspan>xuxi</tspan><tspan class="quote">”</tspan></text></g></g></g><g transform="matrix(1,0,0,1,69.3438,21.1094)" class="match-fragment literal"><g class="label"><rect width="21.328125" height="23.5" rx="3" ry="3"></rect><text x="0" y="0" transform="matrix(1,0,0,1,5,16.75)"><tspan class="quote">“</tspan><tspan> </tspan><tspan class="quote">”</tspan></text></g></g><g transform="matrix(1,0,0,1,100.6719,0)" class="match-fragment subexp"><rect rx="3" ry="3" class="subexp-box" transform="matrix(1,0,0,1,0,11.1094)" width="46.671875" height="43.5"></rect><text x="0" y="0" transform="matrix(1,0,0,1,0,11.1094)" class="subexp-label"><tspan>group #2</tspan></text><g transform="matrix(1,0,0,1,10,21.1094)" class="regexp match match-fragment literal"><g class="label"><rect width="26.671875" height="23.5" rx="3" ry="3"></rect><text x="0" y="0" transform="matrix(1,0,0,1,5,16.75)"><tspan class="quote">“</tspan><tspan>is</tspan><tspan class="quote">”</tspan></text></g></g></g><g transform="matrix(1,0,0,1,157.3438,21.1094)" class="match-fragment literal"><g class="label"><rect width="21.328125" height="23.5" rx="3" ry="3"></rect><text x="0" y="0" transform="matrix(1,0,0,1,5,16.75)"><tspan class="quote">“</tspan><tspan> </tspan><tspan class="quote">”</tspan></text></g></g><g transform="matrix(1,0,0,1,188.6719,21.0938)" class="match-fragment escape"><g class="label"><rect width="153.078125" height="23.53125" rx="3" ry="3"></rect><text x="0" y="0" transform="matrix(1,0,0,1,5,16.7656)"><tspan>Back reference (group = 1)</tspan></text></g></g><g transform="matrix(1,0,0,1,351.75,21.1094)" class="match-fragment literal"><g class="label"><rect width="21.328125" height="23.5" rx="3" ry="3"></rect><text x="0" y="0" transform="matrix(1,0,0,1,5,16.75)"><tspan class="quote">“</tspan><tspan> </tspan><tspan class="quote">”</tspan></text></g></g><g transform="matrix(1,0,0,1,383.0781,21.0938)" class="match-fragment escape"><g class="label"><rect width="153.078125" height="23.53125" rx="3" ry="3"></rect><text x="0" y="0" transform="matrix(1,0,0,1,5,16.7656)"><tspan>Back reference (group = 2)</tspan></text></g></g></g><path d="M20,46.3907H0M546.156225,46.3907H556.15625"></path><circle cx="0" cy="46.3907" r="5"></circle><circle cx="556.15625" cy="46.3907" r="5"></circle></g></svg>
          