
            <svg xmlns="http://www.w3.org/2000/svg" xmlns:cc="http://creativecommons.org/ns#" xmlns:rdf="http://www.w3.org/1999/02/22-rdf-syntax-ns#" version="1.1" width="223.40621948242188" height="88.03129577636719">
              <defs>
                <style type="text/css">svg {
            background-color: #fff; }
          
          .root text,
          .root tspan {
            font: 12px Arial; }
          
          .root path {
            fill-opacity: 0;
            stroke-width: 2px;
            stroke: #000; }
          
          .root circle {
            fill: #6b6659;
            stroke-width: 2px;
            stroke: #000; }
          
          .anchor text, .any-character text {
            fill: #fff; }
          
          .anchor rect, .any-character rect {
            fill: #6b6659; }
          
          .escape text, .charset-escape text, .literal text {
            fill: #000; }
          
          .escape rect, .charset-escape rect {
            fill: #bada55; }
          
          .literal rect {
            fill: #dae9e5; }
          
          .charset .charset-box {
            fill: #cbcbba; }
          
          .subexp .subexp-label tspan,
          .charset .charset-label tspan,
          .match-fragment .repeat-label tspan {
            font-size: 10px; }
          
          .repeat-label {
            cursor: help; }
          
          .subexp .subexp-label tspan,
          .charset .charset-label tspan {
            dominant-baseline: text-after-edge; }
          
          .subexp .subexp-box {
            stroke: #908c83;
            stroke-dasharray: 6,2;
            stroke-width: 2px;
            fill-opacity: 0; }
          
          .quote {
            fill: #908c83; }
          </style>
              </defs>
              <metadata>
                <rdf:rdf>
                  <cc:license rdf:about="http://creativecommons.org/licenses/by/3.0/">
                    <cc:permits rdf:resource="http://creativecommons.org/ns#Reproduction"></cc:permits>
                    <cc:permits rdf:resource="http://creativecommons.org/ns#Distribution"></cc:permits>
                    <cc:requires rdf:resource="http://creativecommons.org/ns#Notice"></cc:requires>
                    <cc:requires rdf:resource="http://creativecommons.org/ns#Attribution"></cc:requires>
                    <cc:permits rdf:resource="http://creativecommons.org/ns#DerivativeWorks"></cc:permits>
                  </cc:license>
                </rdf:rdf>
              </metadata>
            <desc>Created with Snap</desc><g transform="matrix(1,0,0,1,15,21)" class="root"><text x="0" y="0">Flags: Global</text><g transform="matrix(1,0,0,1,10,13.5313)" class="regexp match"><path d="M97.390625,21.75H122.3906"></path><g transform="matrix(1,0,0,1,0,10)" class="match-fragment escape"><g class="label"><rect width="97.390625" height="23.5" rx="3" ry="3"></rect><text x="0" y="0" transform="matrix(1,0,0,1,5,16.75)"><tspan>non-white space</tspan></text></g></g><g transform="matrix(1,0,0,1,107.3906,0)" class="match-fragment"><path d="M0,21.75q10,0 10,-10v-1.75q0,-10 10,-10h26.015625q10,0 10,10v1.75q0,10 10,10M15,21.75q-10,0 -10,10v1.75q0,10 10,10h36.015625q10,0 10,-10v-1.75q0,-10 -10,-10M61.015625,36.75l5,-5m-5,5l-5,-5"></path><g transform="matrix(1,0,0,1,15,10)" class="escape"><g class="label"><rect width="36.015625" height="23.5" rx="3" ry="3"></rect><text x="0" y="0" transform="matrix(1,0,0,1,5,16.75)"><tspan>word</tspan></text></g></g></g></g><path d="M10,35.2813H0M168.406225,35.2813H193.40621948242188"></path><circle cx="0" cy="35.2813" r="5"></circle><circle cx="193.40621948242188" cy="35.2813" r="5"></circle></g></svg>
          